<svg version="1.1" xmlns="http://www.w3.org/2000/svg" xmlns:xlink="http://www.w3.org/1999/xlink" width="98.5" height="140" viewBox="0,0,98.5,140"><g transform="translate(-191.75,-105.475)"><g data-paper-data="{&quot;isPaintingLayer&quot;:true}" fill-rule="nonzero" stroke-linecap="butt" stroke-linejoin="miter" stroke-miterlimit="10" stroke-dasharray="" stroke-dashoffset="0" style="mix-blend-mode: normal"><path d="M192.5,180c0,-26.23353 21.26647,-47.5 47.5,-47.5c26.23353,0 47.5,21.26647 47.5,47.5c0,26.23353 -21.26647,47.5 -47.5,47.5c-26.23353,0 -47.5,-21.26647 -47.5,-47.5z" fill="#27aae1" stroke="none" stroke-width="0"/><text transform="translate(212.12001,214.225) scale(2.5,2.5)" font-size="40" xml:space="preserve" fill="#000000" fill-rule="nonzero" stroke="none" stroke-width="1" stroke-linecap="butt" stroke-linejoin="miter" stroke-miterlimit="10" stroke-dasharray="" stroke-dashoffset="0" font-family="Sans Serif" font-weight="normal" text-anchor="start" style="mix-blend-mode: normal"><tspan x="0" dy="0">+</tspan></text><path d="M195.5,178c0,-25.12895 20.37105,-45.5 45.5,-45.5c25.12896,0 45.5,20.37105 45.5,45.5c0,25.12895 -20.37104,45.5 -45.5,45.5c-25.12895,0 -45.5,-20.37105 -45.5,-45.5z" fill="none" stroke="#000000" stroke-width="7.5"/></g></g></svg>