<svg version="1.1" xmlns="http://www.w3.org/2000/svg" xmlns:xlink="http://www.w3.org/1999/xlink" width="206.13105" height="73.59533" viewBox="0,0,206.13105,73.59533"><defs><linearGradient x1="191.16491" y1="163.4457" x2="397.2937" y2="163.4457" gradientUnits="userSpaceOnUse" id="color-1"><stop offset="0.012" stop-color="#66b3e3"/><stop offset="1" stop-color="#1c75bc"/></linearGradient></defs><g transform="translate(-191.16287,-126.64778)"><g data-paper-data="{&quot;isPaintingLayer&quot;:true}" fill-rule="nonzero" stroke="none" stroke-width="1" stroke-linecap="butt" stroke-linejoin="miter" stroke-miterlimit="10" stroke-dasharray="" stroke-dashoffset="0" style="mix-blend-mode: normal"><path d="M397.29392,188.6597c0,6.39679 -8.7299,11.58341 -19.49163,11.58341h-167.15008c-10.764,0 -19.48934,-5.18796 -19.48934,-11.58341v-50.42987c0,-6.39679 8.72535,-11.58205 19.48934,-11.58205h167.14779c10.76854,0 19.49163,5.18528 19.49163,11.58205v50.42987z" fill="url(#color-1)"/><path d="M389.55843,138.22981v50.42853c0,3.8526 -5.271,6.98639 -11.7584,6.98639h-167.14779c-6.4806,0 -11.75615,-3.13378 -11.75615,-6.98639v-50.42987c0,-3.8526 5.27552,-6.98639 11.75615,-6.98639h167.14779c6.48738,0 11.7584,3.13513 11.7584,6.98773z" fill="#27aae1"/></g></g></svg>